<?xml version="1.0" standalone="no"?>
<!DOCTYPE svg PUBLIC "-//W3C//DTD SVG 20010904//EN"
 "http://www.w3.org/TR/2001/REC-SVG-20010904/DTD/svg10.dtd">
<svg version="1.0" xmlns="http://www.w3.org/2000/svg"
 width="1024.000000pt" height="1024.000000pt" viewBox="0 0 1024.000000 1024.000000"
 preserveAspectRatio="xMidYMid meet">

<g transform="translate(0.000000,1024.000000) scale(0.100000,-0.100000)"
fill="#dfe9f3" stroke="none">
<path d="M4723 8379 c-17 -5 -42 -24 -55 -42 -23 -32 -23 -34 -26 -402 -2
-264 1 -377 9 -397 44 -107 197 -103 239 7 6 16 10 172 10 381 0 385 -2 404
-54 438 -34 22 -81 28 -123 15z"/>
<path d="M3956 8255 c-53 -18 -96 -67 -96 -108 0 -18 18 -81 40 -140 22 -58
40 -112 40 -119 0 -8 13 -35 29 -60 49 -78 124 -87 196 -25 53 46 58 104 17
207 -16 41 -37 99 -47 129 -12 38 -20 49 -26 40 -7 -10 -8 -7 -7 10 6 47 -83
87 -146 66z"/>
<path d="M5489 8237 c-19 -13 -33 -31 -33 -40 1 -9 -2 -15 -6 -12 -6 4 -69
-150 -76 -185 0 -3 -5 -16 -11 -30 -33 -79 -20 -139 38 -181 19 -13 34 -22 34
-21 0 2 11 1 25 -3 30 -7 88 15 114 44 11 12 16 21 12 21 -4 0 0 7 9 16 9 10
14 25 12 36 -3 10 -1 16 3 13 12 -7 23 32 14 46 -5 8 -3 9 6 4 10 -6 12 -1 7
21 -3 16 -4 23 0 15 7 -16 63 123 63 157 0 94 -129 155 -211 99z"/>
<path d="M3302 7875 c-21 -9 -31 -19 -26 -26 4 -7 3 -9 -4 -5 -18 11 -42 -36
-42 -81 0 -38 17 -68 176 -305 97 -145 184 -271 193 -282 59 -69 192 -37 199
48 2 20 7 34 12 31 10 -6 -3 42 -20 76 -15 28 -112 172 -121 179 -3 3 -12 16
-19 30 -28 53 -152 235 -160 235 -5 0 -12 4 -17 9 -5 5 -3 6 5 2 39 -22 -23
59 -64 85 -37 22 -67 24 -112 4z"/>
<path d="M6184 7866 c-41 -18 -96 -77 -88 -96 3 -8 2 -11 -2 -8 -10 11 -146
-190 -138 -204 4 -6 3 -8 -4 -5 -6 4 -33 -26 -63 -70 -77 -114 -92 -136 -108
-152 -37 -40 -52 -122 -29 -164 32 -61 106 -86 154 -52 12 8 24 12 28 10 3 -3
4 -3 3 0 -2 3 14 23 35 46 29 30 37 46 33 62 -4 15 -3 18 3 9 6 -9 19 3 46 44
21 31 39 63 40 70 1 7 6 17 11 21 4 4 5 1 0 -7 -13 -25 9 0 44 49 17 24 28 48
24 54 -4 6 -1 7 7 2 10 -6 12 -4 7 9 -4 9 -3 15 2 11 13 -7 92 107 86 123 -3
7 -1 11 4 8 19 -12 63 65 68 118 4 46 1 56 -23 85 -18 22 -33 31 -46 28 -10
-3 -16 -2 -13 3 5 8 -18 20 -38 20 -7 -1 -26 -7 -43 -14z m-61 -81 c-3 -9 -8
-14 -10 -11 -3 3 -2 9 2 15 9 16 15 13 8 -4z m2 -357 c5 4 5 1 1 -6 -6 -10
-11 -10 -22 -1 -8 6 -14 14 -14 16 0 3 6 0 13 -6 8 -6 18 -7 22 -3z m-62 -103
c-3 -9 -8 -14 -10 -11 -3 3 -2 9 2 15 9 16 15 13 8 -4z m-89 -146 c-3 -5 -10
-7 -15 -3 -5 3 -7 10 -3 15 3 5 10 7 15 3 5 -3 7 -10 3 -15z"/>
<path d="M2715 7308 c-71 -25 -108 -96 -86 -167 11 -39 61 -88 75 -74 3 3 6 2
6 -4 0 -12 198 -136 217 -136 7 0 11 -3 8 -5 -8 -9 119 -82 133 -77 7 3 10 1
7 -5 -3 -5 7 -16 23 -24 16 -8 69 -40 118 -71 115 -72 148 -74 210 -11 37 36
44 50 44 82 0 22 -9 52 -19 68 -23 34 -71 67 -85 59 -6 -3 -8 -3 -4 2 7 7 -12
20 -98 72 -10 6 -115 70 -232 143 -182 112 -272 163 -284 159 -2 0 -16 -5 -33
-11z"/>
<path d="M6795 7313 c-36 -9 -195 -114 -188 -125 3 -7 1 -8 -5 -4 -12 7 -136
-66 -127 -75 3 -3 -1 -6 -7 -6 -24 0 -313 -195 -312 -209 1 -7 -2 -11 -7 -8
-5 3 -16 -11 -24 -30 -33 -79 28 -176 110 -176 28 0 144 63 206 112 20 15 40
28 44 28 3 0 39 22 78 48 40 26 118 76 175 111 59 36 99 67 95 73 -4 7 -1 8 6
4 7 -5 20 -1 29 7 9 7 24 16 33 20 21 7 49 68 49 107 0 18 -8 45 -17 61 -24
40 -95 72 -138 62z m-80 -93 c-3 -5 -12 -10 -18 -10 -7 0 -6 4 3 10 19 12 23
12 15 0z m195 -114 c0 -3 -4 -8 -10 -11 -5 -3 -10 -1 -10 4 0 6 5 11 10 11 6
0 10 -2 10 -4z"/>
<path d="M4510 7221 c-148 -28 -253 -64 -396 -135 -254 -126 -453 -312 -622
-581 -80 -129 -158 -335 -192 -511 -39 -204 -22 -501 40 -694 43 -132 162
-353 248 -459 20 -25 24 -24 101 24 9 6 50 30 91 54 41 24 77 45 79 47 8 7
-63 93 -72 87 -6 -3 -7 -1 -3 5 3 6 -5 28 -20 49 -51 75 -123 240 -149 343
-36 140 -45 341 -21 480 40 227 137 432 291 613 30 36 52 67 50 71 -3 3 -2 4
1 1 9 -6 80 57 76 68 -1 5 2 6 7 3 5 -4 12 -2 15 3 11 17 149 103 226 141 322
160 725 157 1042 -7 40 -21 78 -37 85 -37 7 1 11 -2 10 -7 -1 -5 11 -17 28
-27 34 -20 33 -19 122 -97 215 -188 338 -433 374 -748 10 -92 14 -107 28 -102
20 9 252 95 269 100 44 15 -34 326 -133 527 -56 114 -88 162 -99 150 -4 -3 -4
1 -1 9 15 39 -198 270 -349 379 -97 69 -282 165 -386 198 -148 49 -256 65
-455 68 -153 3 -209 0 -285 -15z m-689 -2218 c13 -16 12 -17 -3 -4 -10 7 -18
15 -18 17 0 8 8 3 21 -13z"/>
<path d="M2368 6570 c-78 -65 -72 -182 13 -225 38 -20 305 -76 326 -68 10 4
14 2 10 -4 -4 -7 10 -13 37 -17 90 -14 156 45 156 138 0 33 -3 45 -12 40 -6
-4 -8 -3 -5 4 20 32 -36 73 -133 96 -155 37 -300 66 -326 66 -18 0 -44 -12
-66 -30z"/>
<path d="M6970 6553 c-206 -34 -247 -47 -271 -86 -53 -88 2 -217 92 -217 45 0
388 56 421 69 13 5 34 21 48 36 21 22 25 36 25 88 0 46 -5 69 -20 89 -42 56
-74 58 -295 21z"/>
<path d="M4704 6222 c-48 -40 -54 -63 -54 -211 l0 -140 -44 -6 c-24 -4 -54 -4
-65 0 -12 3 -63 3 -114 -1 -86 -7 -94 -9 -124 -39 -29 -29 -33 -40 -33 -85 0
-46 4 -56 34 -86 l34 -34 156 0 156 0 0 -155 0 -154 31 -35 c39 -45 101 -57
148 -30 17 10 31 24 31 30 0 6 7 17 15 24 9 7 13 21 10 31 -3 9 -1 21 6 24 8
5 10 46 8 134 l-4 126 137 2 c146 2 195 15 205 54 3 10 9 19 14 19 13 0 24 73
11 78 -6 2 -9 9 -6 16 3 7 -6 24 -19 38 -33 35 -111 50 -241 46 -58 -1 -108 1
-112 5 -4 4 -2 7 4 7 15 0 16 205 2 265 -13 57 -60 95 -120 95 -28 0 -53 -7
-66 -18z m546 -426 c0 -2 -9 -6 -20 -9 -11 -3 -18 -1 -14 4 5 9 34 13 34 5z"/>
<path d="M2305 5838 c-87 -50 -97 -166 -19 -227 27 -21 33 -21 388 -18 199 2
367 6 373 7 24 6 52 45 60 85 12 55 6 88 -14 81 -13 -5 -14 -4 -3 9 11 13 10
19 -5 35 -10 11 -21 17 -25 15 -5 -3 -10 1 -12 7 -6 18 -713 23 -743 6z m785
-182 c0 -2 -8 -10 -17 -17 -16 -13 -17 -12 -4 4 13 16 21 21 21 13z"/>
<path d="M6530 5733 c-148 -17 -394 -94 -548 -171 -92 -46 -235 -137 -277
-176 -17 -16 -45 -40 -62 -53 -18 -14 -30 -30 -26 -36 3 -5 2 -7 -4 -4 -9 6
-79 -58 -85 -78 -2 -5 -6 -9 -10 -8 -11 4 -122 -148 -176 -240 -99 -168 -162
-356 -162 -484 0 -119 -49 -178 -144 -177 -66 0 -95 18 -138 83 -17 28 -35 48
-40 45 -4 -3 -5 3 -1 12 3 10 2 15 -3 12 -10 -7 -9 -12 -21 162 l-8 125 -65
26 c-334 133 -678 88 -990 -130 -47 -32 -84 -64 -82 -71 1 -6 -1 -9 -6 -6 -12
7 -74 -58 -65 -69 5 -4 3 -5 -3 -2 -13 8 -76 -64 -132 -151 -55 -85 -132 -275
-104 -258 12 7 -3 -107 -18 -130 -48 -76 -149 -82 -234 -15 -68 54 -303 87
-442 61 -128 -24 -353 -118 -338 -142 5 -7 2 -9 -7 -6 -17 7 -25 1 -105 -67
-66 -57 -177 -202 -167 -217 3 -6 2 -8 -4 -5 -22 14 -103 -194 -122 -313 -44
-270 50 -556 253 -768 72 -75 151 -136 166 -127 6 4 9 1 8 -6 -2 -6 3 -14 11
-17 9 -3 11 0 6 8 -5 9 -4 11 4 6 6 -4 9 -11 6 -16 -8 -12 33 -33 47 -24 6 4
8 3 5 -3 -15 -24 204 -104 351 -128 87 -14 297 -16 2062 -13 l1965 3 100 23
c55 13 140 37 190 53 81 28 260 109 310 141 11 7 40 26 65 42 78 51 189 136
199 154 6 9 11 13 11 8 0 -5 11 1 25 14 13 12 22 27 18 33 -3 6 -1 7 5 3 9 -5
52 38 171 174 17 19 29 40 26 47 -2 7 1 15 7 19 7 5 8 2 3 -7 -14 -25 5 -3 46
52 22 29 37 59 34 67 -2 7 -1 10 5 7 12 -7 102 146 95 163 -3 8 0 10 7 6 8 -5
9 -2 5 10 -4 9 -3 15 2 12 11 -7 88 172 125 289 127 400 113 810 -41 1205 -53
133 -140 293 -156 283 -6 -3 -7 -1 -3 6 9 13 -4 34 -77 133 -28 37 -55 64 -60
61 -6 -4 -7 -1 -2 6 11 18 -202 225 -295 286 -91 60 -279 153 -378 189 -100
36 -250 72 -351 85 -79 10 -304 13 -381 4z m-173 -1014 c29 -11 75 -38 102
-59 27 -21 52 -36 57 -32 4 4 4 1 0 -5 -4 -7 1 -22 12 -33 29 -31 61 -102 72
-160 5 -29 10 -122 10 -206 l0 -154 144 0 c202 0 289 -21 360 -86 23 -22 30
-24 38 -13 7 10 8 8 3 -8 -3 -12 -1 -24 5 -28 21 -13 59 -83 76 -141 21 -74
15 -177 -16 -259 -18 -46 -39 -76 -89 -125 -95 -93 -124 -102 -343 -108 l-178
-4 0 -146 c0 -223 -26 -300 -133 -399 -158 -145 -409 -142 -558 7 -94 94 -118
165 -126 377 l-6 161 -171 4 c-168 3 -172 4 -238 35 -241 114 -299 418 -116
609 32 33 55 64 50 69 -4 4 -1 5 6 1 7 -4 18 -3 25 2 7 6 40 20 74 31 53 18
87 21 216 21 l154 0 5 168 c5 138 10 177 28 227 12 33 22 68 23 77 1 9 4 15 8
12 10 -6 30 22 27 37 -2 7 2 13 9 14 6 0 26 15 44 33 39 39 108 77 182 97 65
18 170 11 244 -16z m-1120 -746 c0 -9 -4 -10 -14 -2 -7 6 -13 12 -13 14 0 1 6
2 13 2 8 0 14 -6 14 -14z"/>
<path d="M6168 4061 l-33 -29 -2 -114 -2 -113 -112 -2 c-126 -3 -146 -11 -173
-68 -23 -47 -14 -95 24 -138 l28 -32 116 -3 116 -4 0 -110 c0 -121 10 -152 60
-182 35 -20 59 -20 108 -1 60 24 72 55 72 184 l0 111 100 0 c71 0 110 5 130
15 54 28 76 105 46 164 -26 50 -42 56 -160 61 l-111 5 -5 106 c-7 145 -32 179
-130 179 -30 0 -48 -7 -72 -29z"/>
<path d="M2990 5281 c-25 -10 -110 -50 -190 -88 -80 -38 -179 -85 -220 -104
-151 -69 -174 -84 -193 -119 -37 -71 -6 -154 70 -186 44 -19 90 -3 319 107
168 81 215 103 327 152 15 7 25 17 23 23 -2 6 3 11 12 10 10 -1 16 6 16 17 -1
9 2 17 7 17 5 0 9 22 9 50 0 41 -5 55 -31 84 -27 32 -41 40 -89 51 -8 2 -35
-4 -60 -14z"/>
<path d="M2868 4377 c-34 -19 -62 -39 -60 -46 1 -7 -1 -10 -6 -7 -5 3 -18 -8
-30 -23 -16 -22 -18 -31 -9 -41 9 -10 9 -11 0 -6 -6 3 -14 2 -18 -4 -4 -6 14
-10 49 -10 30 0 105 -7 167 -16 105 -14 112 -14 125 3 22 29 16 142 -7 127 -5
-3 -6 1 -3 9 8 23 -40 47 -95 47 -37 0 -66 -9 -113 -33z"/>
</g>
</svg>
