<?xml version="1.0" standalone="no"?>
<!DOCTYPE svg PUBLIC "-//W3C//DTD SVG 20010904//EN"
 "http://www.w3.org/TR/2001/REC-SVG-20010904/DTD/svg10.dtd">
<svg version="1.0" xmlns="http://www.w3.org/2000/svg"
 width="512.000000pt" height="512.000000pt" viewBox="0 0 512.000000 512.000000"
 preserveAspectRatio="xMidYMid meet">

<g transform="translate(0.000000,512.000000) scale(0.100000,-0.100000)"
fill="#dfe9f3" stroke="none">
<path d="M1233 4800 c-176 -32 -343 -161 -420 -327 -54 -116 -53 -92 -53
-1387 l0 -1198 -77 -82 c-131 -139 -211 -312 -234 -507 -48 -407 215 -810 611
-937 238 -76 507 -47 721 78 196 116 335 297 406 527 24 79 26 104 26 238 0
134 -2 159 -26 238 -15 48 -45 123 -67 166 -42 85 -143 218 -191 251 l-29 21
0 1216 c0 1340 3 1264 -63 1402 -60 125 -204 243 -346 285 -69 20 -191 28
-258 16z m262 -229 c111 -55 184 -156 205 -283 6 -41 10 -494 10 -1278 l0
-1214 69 -66 c38 -36 86 -87 106 -114 246 -330 145 -811 -211 -1012 -445 -250
-994 45 -1031 555 -14 206 65 403 222 550 41 38 79 81 85 96 7 17 10 447 10
1259 0 1362 -4 1279 65 1383 99 150 306 204 470 124z"/>
<path d="M1124 3816 l-34 -34 0 -1043 0 -1044 -50 -29 c-101 -60 -192 -181
-230 -305 -29 -91 -27 -234 3 -322 94 -275 367 -429 646 -364 200 47 363 216
406 420 18 88 18 132 0 220 -29 139 -124 276 -242 352 l-53 34 0 1040 c0 694
-3 1047 -10 1060 -23 41 -60 49 -236 49 l-166 0 -34 -34z"/>
<path d="M3296 4769 c-26 -31 -26 -31 -26 -221 l0 -190 29 -29 c22 -21 39 -29
66 -29 27 0 44 8 66 29 l29 29 0 195 0 194 -26 27 c-40 39 -103 37 -138 -5z"/>
<path d="M2461 4436 c-30 -17 -50 -52 -51 -90 0 -25 23 -53 137 -168 132 -132
139 -138 178 -138 22 0 50 7 63 15 24 17 41 67 34 101 -2 12 -66 83 -141 158
-146 145 -163 154 -220 122z"/>
<path d="M4048 4312 c-132 -132 -138 -140 -138 -179 0 -58 37 -93 97 -93 43 0
48 3 165 118 66 64 126 129 134 144 28 54 14 107 -36 133 -62 32 -74 25 -222
-123z"/>
<path d="M3206 4134 c-185 -45 -358 -188 -438 -362 -83 -181 -78 -412 13 -582
117 -220 337 -352 584 -353 253 0 481 141 588 364 54 111 71 183 70 299 -2
295 -198 550 -483 629 -89 25 -243 27 -334 5z"/>
<path d="M2091 3564 c-42 -35 -44 -98 -5 -138 l27 -26 194 0 195 0 29 29 c21
22 29 39 29 66 0 27 -8 44 -29 66 l-29 29 -190 0 c-190 0 -190 0 -221 -26z"/>
<path d="M4217 3579 c-52 -30 -58 -121 -10 -159 24 -19 40 -20 215 -20 116 0
197 4 210 11 32 17 51 74 38 114 -20 60 -37 65 -247 65 -109 0 -195 -5 -206
-11z"/>
<path d="M2553 2818 c-74 -73 -136 -143 -140 -155 -14 -57 33 -123 87 -123 17
0 43 6 58 14 43 23 258 248 263 276 12 68 -29 120 -94 120 -38 0 -47 -7 -174
-132z"/>
<path d="M3939 2921 c-22 -22 -29 -39 -29 -67 0 -36 9 -47 138 -176 129 -129
140 -138 176 -138 53 0 96 43 96 96 0 36 -9 47 -138 176 -129 129 -140 138
-176 138 -28 0 -45 -7 -67 -29z"/>
<path d="M3318 2675 c-15 -8 -32 -24 -38 -35 -6 -11 -10 -98 -10 -207 0 -178
1 -191 21 -212 31 -33 66 -44 105 -31 61 20 64 33 64 247 0 185 -1 193 -22
218 -28 32 -83 41 -120 20z"/>
</g>
</svg>
