<?xml version="1.0" standalone="no"?>
<!DOCTYPE svg PUBLIC "-//W3C//DTD SVG 20010904//EN"
 "http://www.w3.org/TR/2001/REC-SVG-20010904/DTD/svg10.dtd">
<svg version="1.0" xmlns="http://www.w3.org/2000/svg"
 width="512.000000pt" height="512.000000pt" viewBox="0 0 512.000000 512.000000"
 preserveAspectRatio="xMidYMid meet">

<g transform="translate(0.000000,512.000000) scale(0.100000,-0.100000)"
fill="#dfe9f3" stroke="none">
<path d="M1255 5105 c-206 -45 -368 -174 -457 -362 -59 -125 -61 -138 -65
-525 l-5 -357 26 -26 c31 -30 64 -32 100 -4 l26 20 0 322 c0 239 4 339 14 389
50 235 261 408 496 408 233 0 446 -176 495 -407 12 -57 15 -281 15 -1388 l0
-1320 95 -88 c110 -102 168 -179 225 -298 85 -179 110 -385 70 -578 -21 -103
-21 -105 -2 -130 25 -34 82 -41 110 -13 27 27 52 145 59 272 16 308 -97 598
-321 820 l-85 85 -3 1325 -3 1325 -27 80 c-46 135 -116 236 -224 323 -148 118
-357 167 -539 127z"/>
<path d="M1285 4686 c-52 -23 -92 -63 -123 -120 -16 -29 -17 -133 -22 -1426
-6 -1608 9 -1424 -122 -1515 -122 -86 -217 -212 -260 -345 -29 -91 -36 -272
-14 -360 61 -246 264 -444 507 -496 155 -33 340 -3 477 78 76 45 189 159 235
238 64 111 82 184 82 340 0 121 -3 143 -27 208 -52 144 -134 250 -259 338
-115 81 -119 92 -119 337 l0 197 34 0 c49 0 89 37 89 80 0 43 -32 70 -84 70
l-39 0 0 130 0 130 43 0 c52 0 80 25 80 71 0 40 -31 69 -82 76 l-41 6 0 123 0
124 36 0 c48 0 70 14 83 51 8 24 7 37 -4 59 -16 32 -33 40 -81 40 l-34 0 0
124 0 123 41 6 c51 7 82 36 82 76 0 46 -28 71 -80 71 l-43 0 0 130 0 130 34 0
c48 0 65 8 81 40 29 56 -14 110 -85 110 l-30 0 0 125 0 125 34 0 c49 0 89 37
89 80 0 43 -32 70 -84 70 l-39 0 0 83 c0 101 -12 144 -53 199 -71 92 -197 123
-302 74z m154 -140 c15 -8 32 -26 39 -41 9 -20 12 -291 12 -1110 l0 -1085
-100 0 -100 0 0 1088 c1 883 3 1091 14 1111 26 47 84 63 135 37z m51 -2584 c0
-222 8 -267 63 -348 18 -28 60 -68 97 -94 168 -116 250 -262 250 -445 0 -334
-316 -583 -635 -500 -180 47 -334 202 -374 375 -15 64 -13 196 3 256 33 123
112 228 236 314 37 26 79 66 97 94 55 81 63 126 63 348 l0 198 100 0 100 0 0
-198z"/>
<path d="M3615 4555 c-24 -23 -25 -30 -25 -141 l0 -117 -59 56 c-33 32 -66 57
-75 57 -44 0 -86 -43 -86 -87 0 -9 50 -66 110 -128 l110 -111 0 -224 0 -225
-155 155 -155 155 0 152 0 152 -26 20 c-31 24 -43 26 -78 10 -31 -15 -46 -56
-46 -127 l0 -55 -77 75 c-43 41 -88 80 -100 87 -48 25 -103 -14 -103 -73 0
-23 18 -47 87 -117 l87 -89 -67 0 c-79 0 -113 -13 -125 -50 -11 -32 7 -84 33
-94 9 -3 83 -6 163 -6 l147 0 155 -155 155 -155 -215 0 -214 0 -111 110 c-123
121 -145 131 -190 85 -40 -39 -33 -69 32 -136 l56 -59 -125 0 c-141 0 -163 -8
-174 -67 -5 -26 -1 -37 19 -57 25 -25 30 -26 153 -26 l127 0 -56 -59 c-65 -67
-72 -97 -32 -136 45 -46 67 -36 190 85 l111 110 209 0 210 0 -150 -150 -150
-150 -150 0 c-160 -1 -176 -5 -194 -51 -11 -30 8 -83 34 -93 9 -3 49 -6 88 -6
l71 0 -88 -89 c-82 -84 -87 -92 -84 -127 4 -48 43 -80 84 -70 15 4 65 44 111
88 l83 82 0 -56 c0 -66 15 -115 40 -128 30 -16 64 -12 88 10 21 20 22 29 22
173 l0 152 155 155 155 155 0 -215 0 -214 -104 -106 c-61 -62 -107 -117 -112
-134 -10 -41 22 -80 69 -84 33 -3 43 3 92 49 l55 52 0 -122 c0 -116 1 -123 25
-146 30 -30 64 -32 99 -4 26 20 26 22 26 145 0 68 4 124 8 124 4 0 30 -22 57
-50 57 -58 96 -66 133 -27 43 46 32 70 -88 192 l-110 111 0 214 0 215 160
-160 160 -160 0 -143 c0 -164 9 -196 61 -207 23 -5 38 -2 58 12 24 19 26 27
29 103 l3 84 77 -77 c82 -81 114 -99 149 -86 32 12 56 54 49 84 -4 14 -41 62
-83 105 l-76 80 70 0 c56 0 76 4 97 21 34 27 36 77 3 107 -22 21 -33 22 -173
22 l-149 0 -160 160 -160 160 225 0 224 0 111 -110 c123 -121 145 -131 190
-85 40 39 33 69 -32 136 l-56 59 115 0 c102 0 118 2 142 21 34 27 35 71 1 104
-23 24 -30 25 -141 25 l-117 0 56 59 c65 67 72 97 32 136 -45 46 -67 36 -190
-85 l-111 -110 -229 0 -230 0 165 165 165 165 152 0 c140 0 155 2 173 20 28
28 26 75 -5 105 -21 22 -33 25 -96 25 l-72 0 76 78 c41 43 79 91 83 106 10 41
-22 80 -70 84 -35 3 -43 -2 -122 -79 l-84 -83 0 78 c0 68 -3 80 -25 101 -27
28 -42 30 -78 14 -40 -18 -47 -50 -47 -202 l0 -142 -160 -160 -160 -160 0 225
0 225 110 110 c82 82 110 116 110 135 0 55 -56 93 -103 69 -12 -6 -43 -32 -69
-57 l-48 -46 0 117 c0 112 -1 119 -25 142 -13 14 -36 25 -50 25 -14 0 -37 -11
-50 -25z"/>
<path d="M755 3635 l-25 -24 0 -842 0 -842 -82 -82 c-146 -143 -244 -311 -296
-503 -23 -85 -26 -117 -26 -262 -1 -126 3 -182 17 -239 98 -402 390 -703 785
-808 86 -23 116 -26 262 -26 148 0 175 2 265 27 238 65 452 209 588 395 56 76
62 118 21 150 -40 32 -63 26 -108 -25 -172 -197 -290 -288 -442 -343 -268 -97
-545 -74 -785 65 -472 274 -603 892 -283 1341 24 34 87 101 139 150 l95 88 0
882 0 882 -26 20 c-35 28 -69 26 -99 -4z"/>
</g>
</svg>
